#!OML:ASF H:\GeneralSubjects\Female5\Project 1\Capture day 1\Session 1\Female5.ASF
:FULLY-SPECIFIED
:DEGREES
142
root 5.83289 19.6978 3.13084 136.437 -87.3701 -120.349
lowerback 16.079 1.433 1.02737
upperback -6.25887 2.11908 -0.215648
thorax -16.1986 0.822823 -1.4531
lowerneck -16.9096 -0.667021 -3.47958
upperneck 44.2431 -3.18336 2.1067
head 20.4258 -2.23578 0.760796
rclavicle 6.90777e-015 -3.77691e-015
rhumerus -30.46 30.701 -62.0483
rradius 64.611
rwrist -12.6819
rhand -19.9153 -16.6164
rfingers 7.12502
rthumb 6.42161 -46.4991
lclavicle 6.90777e-015 -3.77691e-015
lhumerus -48.0141 -6.28053 79.7573
lradius 57.4664
lwrist 0.354397
lhand -28.5587 27.9044
lfingers 7.12502
lthumb -1.92554 57.8755
rfemur -6.6032 8.54959 33.182
rtibia 6.47666
rfoot -17.3238 -6.86255
rtoes -9.04954
lfemur -71.7972 -12.8636 -30.2162
ltibia 77.4006
lfoot 330.708 -13.1008
ltoes -21.7493
143
root 5.69661 19.7507 3.14507 139.791 -87.4825 -123.134
lowerback 16.1118 1.46168 0.61396
upperback -6.41528 2.04978 -0.295439
thorax -16.4253 0.823597 -1.29454
lowerneck -16.9423 -0.694132 -3.41595
upperneck 44.0833 -3.21044 2.09352
head 20.3231 -2.22818 0.738588
rclavicle -3.05631e-015 9.74045e-015
rhumerus -30.4079 30.0809 -61.7846
rradius 65.0683
rwrist -12.4934
rhand -19.9062 -16.5243
rfingers 7.12502
rthumb 6.43037 -46.4067
lclavicle -3.05631e-015 9.74045e-015
lhumerus -47.2087 -6.8521 80.1188
lradius 58.1178
lwrist 0.639566
lhand -28.7373 28.4181
lfingers 7.12502
lthumb -2.09804 58.3875
rfemur -6.4117 9.49333 32.9286
rtibia 5.87408
rfoot -16.6569 -7.89231
rtoes -8.33146
lfemur -71.2205 -13.0596 -30.3924
ltibia 76.7313
lfoot 329.934 -13.2768
ltoes -22.3485
144
root 5.5591 19.8309 3.15705 142.946 -87.6382 -125.686
lowerback 16.13 1.48644 0.142748
upperback -6.55867 1.95862 -0.383825
thorax -16.6295 0.821626 -1.10587
lowerneck -17.0136 -0.721197 -3.2959
upperneck 43.9414 -3.24438 2.04759
head 20.2431 -2.21751 0.687866
rclavicle 2.48481e-017 3.29983e-014
rhumerus -30.4568 29.2653 -61.5539
rradius 65.5286
rwrist -12.4637
rhand -20.0644 -16.4756
rfingers 7.12502
rthumb 6.27768 -46.3626
lclavicle 2.48481e-017 3.29983e-014
lhumerus -46.398 -7.55404 80.4676
lradius 58.7473
lwrist 0.884135
lhand -29.1265 28.3747
lfingers 7.12502
lthumb -2.47391 58.3401
rfemur -6.12608 10.7387 32.655
rtibia 5.0071
rfoot -15.6792 -9.43263
rtoes -8.46102
lfemur -70.5252 -13.2184 -30.5633
ltibia 75.7978
lfoot 329.494 -13.5117
ltoes -22.5916
145
root 5.41957 19.9386 3.1675 145.505 -87.8009 -127.606
lowerback 16.1134 1.505 -0.329291
upperback -6.68431 1.85767 -0.47074
thorax -16.7898 0.817279 -0.910564
lowerneck -17.1517 -0.730076 -3.08151
upperneck 43.8451 -3.25622 1.93057
head 20.2092 -2.1919 0.58819
rclavicle -2.78299e-015 -2.5842e-015
rhumerus -30.6087 28.3137 -61.3674
rradius 65.9814
rwrist -12.6518
rhand -20.3636 -16.4738
rfingers 7.12502
rthumb 5.98874 -46.3692
lclavicle -2.78299e-015 -2.5842e-015
lhumerus -45.5515 -8.34635 80.782
lradius 59.3569
lwrist 1.13103
lhand -29.5768 28.2066
lfingers 7.12502
lthumb -2.90878 58.1665
rfemur -5.79659 12.1743 32.3857
rtibia 3.9392
rfoot -14.2646 -11.4579
rtoes -9.7124
lfemur -69.7102 -13.3196 -30.6864
ltibia 74.5782
lfoot 329.376 -13.8575
ltoes -22.3526
146
root 5.27726 20.0726 3.17742 147.068 -87.9352 -128.496
lowerback 16.0508 1.51859 -0.766777
upperback -6.7945 1.75972 -0.544358
thorax -16.9003 0.813073 -0.718674
lowerneck -17.2755 -0.744875 -2.88758
upperneck 43.7538 -3.2983 1.86628
head 20.1781 -2.17495 0.512519
rclavicle 4.02539e-015 -3.77691e-015
rhumerus -30.8775 27.3233 -61.2358
rradius 66.4171
rwrist -13.0829
rhand -20.7848 -16.5265
rfingers 7.12502
rthumb 5.58209 -46.4329
lclavicle 4.02539e-015 -3.77691e-015
lhumerus -44.6647 -9.1736 81.0416
lradius 59.8853
lwrist 1.28931
lhand -30.0292 28.0406
lfingers 7.12502
lthumb -3.34565 57.9941
rfemur -5.49338 13.649 32.127
rtibia 2.77463
rfoot -12.38 -13.7944
rtoes -11.5953
lfemur -68.776 -13.337 -30.7391
ltibia 73.0756
lfoot 329.493 -14.2792
ltoes -21.7766
147
root 5.13177 20.2301 3.18779 147.122 -88.0077 -127.848
lowerback 15.9358 1.52493 -1.12036
upperback -6.89084 1.67555 -0.597253
thorax -16.9573 0.80861 -0.552766
lowerneck -17.3662 -0.759948 -2.66156
upperneck 43.6691 -3.3511 1.78284
head 20.1408 -2.1607 0.419291
rclavicle -3.62782e-015 -2.06736e-014
rhumerus -31.2582 26.3891 -61.1617
rradius 66.8172
rwrist -13.7094
rhand -21.3083 -16.654
rfingers 7.12502
rthumb 5.07671 -46.5732
lclavicle -3.62782e-015 -2.06736e-014
lhumerus -43.7385 -9.95849 81.2266
lradius 60.2954
lwrist 1.27974
lhand -30.5057 27.9759
lfingers 7.12502
lthumb -3.80583 57.9217
rfemur -5.29987 14.985 31.8764
rtibia 1.64528
rfoot -10.1862 -16.1641
rtoes -12.5926
lfemur -67.7304 -13.2489 -30.7025
ltibia 71.3136
lfoot 329.731 -14.6446
ltoes -21.2078
148
root 4.9837 20.407 3.19941 145.18 -87.9767 -125.189
lowerback 15.7795 1.52338 -1.33784
upperback -6.97512 1.61863 -0.619433
thorax -16.9686 0.804525 -0.435378
lowerneck -17.3919 -0.787044 -2.5036
upperneck 43.5667 -3.44581 1.79645
head 20.0787 -2.1625 0.378929
rclavicle -9.24349e-015 -1.11319e-014
rhumerus -31.7436 25.5881 -61.1435
rradius 67.1643
rwrist -14.4095
rhand -21.8837 -16.8341
rfingers 7.12502
rthumb 4.52112 -46.7658
lclavicle -9.24349e-015 -1.11319e-014
lhumerus -42.7853 -10.6261 81.3263
lradius 60.5757
lwrist 1.11071
lhand -31.0315 28.0785
lfingers 7.12502
lthumb -4.31359 58.0146
rfemur -5.30402 15.9785 31.6421
rtibia 0.698539
rfoot -7.98473 -18.344
rtoes -11.0945
lfemur -66.5969 -13.0419 -30.5406
ltibia 69.3325
lfoot 330.025 -14.8624
ltoes -20.7888
149
root 4.83424 20.5979 3.21298 141.816 -87.8086 -121.115
lowerback 15.6036 1.51577 -1.39718
upperback -7.0454 1.59722 -0.604912
thorax -16.9453 0.802298 -0.375106
lowerneck -17.376 -0.819221 -2.42566
upperneck 43.4612 -3.57574 1.92565
head 20.0104 -2.17742 0.403573
rclavicle -2.68359e-015 1.11319e-014
rhumerus -32.3186 24.9716 -61.1773
rradius 67.4524
rwrist -15.0215
rhand -22.4211 -17.0031
rfingers 7.12502
rthumb 4.00217 -46.9453
lclavicle -2.68359e-015 1.11319e-014
lhumerus -41.8305 -11.1144 81.3336
lradius 60.751
lwrist 0.856731
lhand -31.4827 28.4387
lfingers 7.12502
lthumb -4.74924 58.3655
rfemur -5.58397 16.3974 31.4234
rtibia 0.0700615
rfoot -6.04842 -20.3533
rtoes -6.72222
lfemur -65.3926 -12.7061 -30.2345
ltibia 67.1916
lfoot 330.318 -14.8858
ltoes -20.6557
150
root 4.68456 20.7968 3.229 138.561 -87.5015 -117.181
lowerback 15.4263 1.50778 -1.32233
upperback -7.09994 1.61234 -0.555328
thorax -16.898 0.804795 -0.360972
lowerneck -17.4208 -0.827452 -2.39653
upperneck 43.4504 -3.70798 2.14768
head 20.0301 -2.19148 0.480721
rclavicle -7.95139e-016 -6.36111e-015
rhumerus -32.9699 24.5606 -61.2554
rradius 67.6784
rwrist -15.3808
rhand -22.8105 -17.1477
rfingers 7.12502
rthumb 3.62611 -47.0966
lclavicle -7.95139e-016 -6.36111e-015
lhumerus -40.9154 -11.3892 81.2546
lradius 60.875
lwrist 0.619859
lhand -31.8959 28.8403
lfingers 7.12502
lthumb -5.14826 58.7578
rfemur -6.20988 15.9516 31.2121
rtibia -0.0879862
rfoot -4.50822 -22.1841
rtoes 0.214767
lfemur -64.1221 -12.2381 -29.8121
ltibia 64.9365
lfoot 330.668 -14.9113
ltoes -20.4311
151
root 4.53586 20.997 3.2476 136.49 -87.0797 -114.491
lowerback 15.2708 1.50522 -1.15334
upperback -7.1367 1.66034 -0.479623
thorax -16.8403 0.814037 -0.380019
lowerneck -17.4879 -0.802373 -2.35308
upperneck 43.4773 -3.81483 2.39893
head 20.0825 -2.19083 0.57463
rclavicle 5.46658e-015 -1.31198e-014
rhumerus -33.6681 24.3572 -61.3613
rradius 67.8196
rwrist -15.3837
rhand -22.9696 -17.2554
rfingers 7.12502
rthumb 3.47249 -47.2069
lclavicle 5.46658e-015 -1.31198e-014
lhumerus -40.0756 -11.4671 81.1052
lradius 60.9942
lwrist 0.519964
lhand -32.1451 29.1773
lfingers 7.12502
lthumb -5.38884 59.0888
rfemur -7.23922 14.3624 31.0339
rtibia 0.43358
rfoot -2.99781 -23.8068
rtoes 7.19346
lfemur -62.7787 -11.6358 -29.3325
ltibia 62.6004
lfoot 331.119 -15.0459
ltoes -19.8546
152
root 4.38934 21.1921 3.26839 135.844 -86.5833 -113.319
lowerback 15.1578 1.50997 -0.931625
upperback -7.15389 1.73147 -0.392362
thorax -16.7842 0.829011 -0.423138
lowerneck -17.6389 -0.716739 -2.27865
upperneck 43.621 -3.86105 2.65706
head 20.2378 -2.16337 0.678108
rclavicle -1.13307e-014 1.70955e-014
rhumerus -34.381 24.3307 -61.4882
rradius 67.8455
rwrist -15.0062
rhand -22.8821 -17.3199
rfingers 7.12502
rthumb 3.55691 -47.27
lclavicle -1.13307e-014 1.70955e-014
lhumerus -39.3316 -11.3958 80.8972
lradius 61.132
lwrist 0.610636
lhand -32.2377 29.3603
lfingers 7.12502
lthumb -5.47827 59.2695
rfemur -8.71834 11.5799 30.945
rtibia 1.89296
rfoot -0.550158 -25.1074
rtoes 9.88543
lfemur -61.3439 -10.9108 -28.855
ltibia 60.22
lfoot 331.662 -15.297
ltoes -18.9239
